o SquareAreaHL
v -0.929289321881345 -0.0267949192431123 -0.929289321881345
v -0.929289321881345 -0.0267949192431123 0.929289321881345
v -1 0 1
v -1 0 -1
v -0.877525512860841 -0.1 -0.877525512860841
v -0.877525512860841 -0.1 0.877525512860841
v -0.85857864376269 -0.2 -0.85857864376269
v -0.85857864376269 -0.2 0.85857864376269
v 0.929289321881345 -0.0267949192431123 0.929289321881345
v 1 0 1
v 0.877525512860841 -0.1 0.877525512860841
v 0.85857864376269 -0.2 0.85857864376269
v 0.929289321881345 -0.0267949192431123 -0.929289321881345
v 1 0 -1
v 0.877525512860841 -0.1 -0.877525512860841
v 0.85857864376269 -0.2 -0.85857864376269
vn -0.1 -0.173205080756888 0
vn 0 -0.2 0
vn -0.173205080756888 -0.1 0
vn -0.2 -2.77555756156289E-17 0
vn 0 -0.173205080756888 0.1
vn 0 -0.1 0.173205080756888
vn 0 -2.77555756156289E-17 0.2
vn 0.1 -0.173205080756888 0
vn 0.173205080756888 -0.1 0
vn 0.2 -2.77555756156289E-17 0
vn 0 -0.173205080756888 -0.1
vn 0 -0.1 -0.173205080756888
vn 0 -2.77555756156289E-17 -0.2
g SquareAreaHL
f 1//1 2//1 3//2 4//2
f 5//3 6//3 2//1 1//1
f 7//4 8//4 6//3 5//3
f 7//4 8//4 8//4 7//4
f 2//5 9//5 10//2 3//2
f 6//6 11//6 9//5 2//5
f 8//7 12//7 11//6 6//6
f 8//7 12//7 12//7 8//7
f 9//8 13//8 14//2 10//2
f 11//9 15//9 13//8 9//8
f 12//10 16//10 15//9 11//9
f 12//10 16//10 16//10 12//10
f 13//11 1//11 4//2 14//2
f 15//12 5//12 1//11 13//11
f 16//13 7//13 5//12 15//12
f 16//13 7//13 7//13 16//13
#h 
