o Socket
v -1 0 -1
v -1 0 1
v -0.929289321881345 -0.0267949192431123 0.929289321881345
v -0.929289321881345 -0.0267949192431123 -0.929289321881345
v -0.877525512860841 -0.1 0.877525512860841
v -0.877525512860841 -0.1 -0.877525512860841
v -0.85857864376269 -0.2 0.85857864376269
v -0.85857864376269 -0.2 -0.85857864376269
v 1 0 1
v 0.929289321881345 -0.0267949192431123 0.929289321881345
v 0.877525512860841 -0.1 0.877525512860841
v 0.85857864376269 -0.2 0.85857864376269
v 1 0 -1
v 0.929289321881345 -0.0267949192431123 -0.929289321881345
v 0.877525512860841 -0.1 -0.877525512860841
v 0.85857864376269 -0.2 -0.85857864376269
vn 0 0.2 0
vn 0.1 0.173205080756888 0
vn 0.173205080756888 0.1 0
vn 0.2 2.77555756156289E-17 0
vn 0 0.173205080756888 -0.1
vn 0 0.1 -0.173205080756888
vn 0 2.77555756156289E-17 -0.2
vn -0.1 0.173205080756888 0
vn -0.173205080756888 0.1 0
vn -0.2 2.77555756156289E-17 0
vn 0 0.173205080756888 0.1
vn 0 0.1 0.173205080756888
vn 0 2.77555756156289E-17 0.2
g Socket
f 1//1 2//1 3//2 4//2
f 4//2 3//2 5//3 6//3
f 6//3 5//3 7//4 8//4
f 8//4 7//4 7//4 8//4
f 2//1 9//1 10//5 3//5
f 3//5 10//5 11//6 5//6
f 5//6 11//6 12//7 7//7
f 7//7 12//7 12//7 7//7
f 9//1 13//1 14//8 10//8
f 10//8 14//8 15//9 11//9
f 11//9 15//9 16//10 12//10
f 12//10 16//10 16//10 12//10
f 13//1 1//1 4//11 14//11
f 14//11 4//11 6//12 15//12
f 15//12 6//12 8//13 16//13
f 16//13 8//13 8//13 16//13
#h 
